<svg width="80" height="25" viewBox="0 0 80 25" fill="none" xmlns="http://www.w3.org/2000/svg">
<path d="M11.5681 24.2651C11.1681 24.2651 10.1441 24.2331 8.49609 24.1691C6.86409 24.1211 5.66409 24.0891 4.89609 24.0731L2.30409 24.0011L1.48809 24.0731C1.04009 24.0731 0.816094 23.9051 0.816094 23.5691C0.816094 23.4571 0.840094 23.3691 0.888094 23.3051C1.00009 23.1451 1.17609 22.7131 1.41609 22.0091C1.65609 21.2891 1.86409 20.5451 2.04009 19.7771C2.37609 18.2891 2.80009 16.3211 3.31209 13.8731C4.20809 9.61713 4.98409 6.01713 5.64009 3.07313C5.38409 3.05713 5.25609 2.89713 5.25609 2.59313C5.25609 2.30513 5.48809 2.04113 5.95209 1.80113C5.95209 1.30513 6.19209 1.05713 6.67209 1.05713C6.92809 1.05713 7.06409 1.17713 7.08009 1.41713C7.83209 1.24113 8.87209 1.09713 10.2001 0.985133C11.5441 0.873132 12.7761 0.817132 13.8961 0.817132C14.6321 0.817132 15.1841 0.841132 15.5521 0.889132C15.8561 0.937132 16.0081 1.05713 16.0081 1.24913C16.0081 1.47313 15.9441 1.64913 15.8161 1.77713C15.6881 1.88913 15.5601 1.94513 15.4321 1.94513C12.9201 1.94513 11.0401 1.99313 9.79209 2.08913C8.56009 2.18513 7.60009 2.34513 6.91209 2.56913C6.64009 3.51313 6.23209 5.30513 5.68809 7.94513C5.25609 10.0091 4.99209 11.2331 4.89609 11.6171C5.48809 11.6811 6.70409 11.7131 8.54409 11.7131C9.82409 11.7131 10.8161 11.6971 11.5201 11.6651C11.6961 11.6651 11.8081 11.7051 11.8561 11.7851C11.9041 11.8491 11.9281 11.9371 11.9281 12.0491C11.9281 12.3851 11.7601 12.6011 11.4241 12.6971C11.0881 12.7931 10.5921 12.8411 9.93609 12.8411L4.65609 12.7211C4.41609 13.6011 4.04009 15.1771 3.52809 17.4491C2.92009 20.2171 2.48009 22.0571 2.20809 22.9691C3.28009 22.9851 4.17609 23.0011 4.89609 23.0171C5.61609 23.0331 6.20809 23.0491 6.67209 23.0651L12.4321 23.1611C12.6561 23.1611 12.8081 23.1531 12.8881 23.1371C12.9681 23.1211 13.0481 23.1131 13.1281 23.1131C13.4001 23.1931 13.5361 23.3291 13.5361 23.5211C13.5361 23.8251 13.4001 24.0251 13.1281 24.1211C12.8561 24.2171 12.3361 24.2651 11.5681 24.2651ZM18.0421 24.3371C17.2741 24.3371 16.6661 24.0571 16.2181 23.4971C15.7861 22.9211 15.5701 22.2331 15.5701 21.4331C15.5701 20.0251 15.8261 18.5691 16.3381 17.0651C16.8661 15.5611 17.5541 14.3051 18.4021 13.2971C19.2341 12.2891 20.1301 11.7851 21.0901 11.7851C21.7781 11.7851 22.2261 12.0331 22.4341 12.5291C22.4821 12.6091 22.5221 12.6971 22.5541 12.7931C22.5861 12.8731 22.6181 12.9531 22.6501 13.0331C22.7301 13.2571 22.8101 13.3851 22.8901 13.4171C22.9541 13.5771 22.9861 13.6971 22.9861 13.7771C22.9861 13.9211 22.9141 14.0571 22.7701 14.1851C22.6421 14.3131 22.4981 14.3771 22.3381 14.3771C22.0021 14.3771 21.7861 14.1291 21.6901 13.6331C21.5941 13.1371 21.3301 12.8891 20.8981 12.8891C20.3221 12.8891 19.7141 13.3371 19.0741 14.2331C18.4341 15.1131 17.8821 16.2331 17.4181 17.5931C16.9701 18.8731 16.7461 20.0171 16.7461 21.0251C16.7461 22.4491 17.2661 23.1611 18.3061 23.1611C18.8341 23.1611 19.3221 22.9131 19.7701 22.4171C19.8181 22.3531 19.9061 22.2491 20.0341 22.1051C20.1621 21.9451 20.2821 21.8331 20.3941 21.7691C20.5061 21.6891 20.6101 21.6491 20.7061 21.6491C21.0101 21.6491 21.1621 21.7851 21.1621 22.0571C21.1621 22.3771 21.0101 22.7211 20.7061 23.0891C20.4021 23.4411 20.0101 23.7371 19.5301 23.9771C19.0501 24.2171 18.5541 24.3371 18.0421 24.3371ZM25.6972 24.2651C24.8652 24.2651 24.2412 23.9371 23.8252 23.2811C23.4252 22.6251 23.2252 21.8411 23.2252 20.9291C23.2252 19.4731 23.4652 18.0651 23.9452 16.7051C24.4412 15.3291 25.1132 14.1931 25.9612 13.2971C26.7772 12.3851 27.6972 11.9291 28.7212 11.9291C30.1932 11.9291 30.9292 13.0491 30.9292 15.2891C30.9292 16.4091 30.7452 17.5531 30.3772 18.7211C30.0092 19.8891 29.5292 20.9291 28.9372 21.8411C28.3612 22.7531 27.7612 23.4091 27.1372 23.8091C26.6572 24.1131 26.1772 24.2651 25.6972 24.2651ZM25.8892 23.1851C26.3852 23.1851 26.9372 22.7531 27.5452 21.8891C28.1692 21.0251 28.6892 19.9531 29.1052 18.6731C29.5372 17.3931 29.7532 16.3051 29.7532 15.4091C29.7532 14.4811 29.6972 13.9051 29.5852 13.6811C29.4892 13.4411 29.3692 13.2731 29.2252 13.1771C29.0812 13.0811 28.8572 13.0331 28.5532 13.0331C28.2172 13.0331 27.8652 13.1611 27.4972 13.4171C26.7612 13.8811 26.1212 14.6811 25.5772 15.8171C24.7292 17.5131 24.3052 19.1611 24.3052 20.7611C24.3052 21.8491 24.6172 22.6011 25.2412 23.0171C25.4652 23.1291 25.6812 23.1851 25.8892 23.1851ZM35.0778 24.6731C34.8378 24.6731 34.7018 24.5131 34.6698 24.1931C35.7418 19.0891 36.4538 15.1371 36.8058 12.3371C36.6778 12.3691 36.4458 12.3851 36.1098 12.3851C35.7578 12.3851 35.4458 12.3531 35.1738 12.2891C34.9178 12.2091 34.7898 12.0811 34.7898 11.9051C34.7898 11.6171 34.8858 11.4411 35.0778 11.3771C35.2858 11.2971 35.5018 11.2651 35.7258 11.2811C35.9498 11.2811 36.0938 11.2811 36.1578 11.2811L36.9978 11.2571L37.0698 10.6571C37.3258 8.51313 37.6938 6.31313 38.1738 4.05713C37.0378 4.36113 36.1258 4.65713 35.4378 4.94513C34.7658 5.23313 34.1658 5.52913 33.6378 5.83313C33.3178 6.00913 33.1098 6.09713 33.0138 6.09713C32.7258 6.09713 32.5818 5.95313 32.5818 5.66513C32.5818 5.28113 32.9498 4.90513 33.6858 4.53713C34.4378 4.15313 35.0618 3.88913 35.5578 3.74513C36.0538 3.60113 37.0218 3.32113 38.4618 2.90513C38.6378 2.12113 38.7738 1.59313 38.8698 1.32113C39.0458 1.08113 39.2458 0.961132 39.4698 0.961132C39.7578 0.961132 39.9018 1.08113 39.9018 1.32113C39.9018 1.44913 39.8618 1.57713 39.7818 1.70513L39.6138 2.59313C43.3258 1.66513 47.6138 1.16113 52.4778 1.08113C52.7498 1.16113 52.8858 1.29713 52.8858 1.48913C52.8858 1.63313 52.8218 1.77713 52.6938 1.92113C52.5818 2.04913 52.4458 2.13713 52.2858 2.18513C47.3738 2.26513 43.0698 2.78513 39.3738 3.74513L38.9658 5.76113C38.7578 6.76913 38.5978 7.59313 38.4858 8.23313C38.3738 8.85713 38.2698 9.60913 38.1738 10.4891L38.1018 11.1371C39.8458 10.9771 41.2298 10.8731 42.2538 10.8251C43.2938 10.7611 44.3418 10.7291 45.3978 10.7291C45.5098 10.7291 45.5898 10.7691 45.6378 10.8491C45.7018 10.9291 45.7338 11.0171 45.7338 11.1131C45.7338 11.2731 45.6698 11.4251 45.5418 11.5691C45.4298 11.6971 45.2858 11.7771 45.1098 11.8091C44.5178 11.8571 43.8938 11.8891 43.2378 11.9051C40.9338 11.9851 39.1738 12.0891 37.9578 12.2171C37.7178 14.0091 37.3818 16.0251 36.9498 18.2651C36.5178 20.4891 36.1098 22.4651 35.7258 24.1931C35.5818 24.5131 35.3658 24.6731 35.0778 24.6731ZM48.2215 24.2651C47.3895 24.2651 46.7655 23.9371 46.3495 23.2811C45.9495 22.6251 45.7495 21.8411 45.7495 20.9291C45.7495 19.4731 45.9895 18.0651 46.4695 16.7051C46.9655 15.3291 47.6375 14.1931 48.4855 13.2971C49.3015 12.3851 50.2215 11.9291 51.2455 11.9291C52.7175 11.9291 53.4535 13.0491 53.4535 15.2891C53.4535 16.4091 53.2695 17.5531 52.9015 18.7211C52.5335 19.8891 52.0535 20.9291 51.4615 21.8411C50.8855 22.7531 50.2855 23.4091 49.6615 23.8091C49.1815 24.1131 48.7015 24.2651 48.2215 24.2651ZM48.4135 23.1851C48.9095 23.1851 49.4615 22.7531 50.0695 21.8891C50.6935 21.0251 51.2135 19.9531 51.6295 18.6731C52.0615 17.3931 52.2775 16.3051 52.2775 15.4091C52.2775 14.4811 52.2215 13.9051 52.1095 13.6811C52.0135 13.4411 51.8935 13.2731 51.7495 13.1771C51.6055 13.0811 51.3815 13.0331 51.0775 13.0331C50.7415 13.0331 50.3895 13.1611 50.0215 13.4171C49.2855 13.8811 48.6455 14.6811 48.1015 15.8171C47.2535 17.5131 46.8295 19.1611 46.8295 20.7611C46.8295 21.8491 47.1415 22.6011 47.7655 23.0171C47.9895 23.1291 48.2055 23.1851 48.4135 23.1851ZM56.8822 24.2651C56.0502 24.2651 55.4262 23.9371 55.0102 23.2811C54.6102 22.6251 54.4102 21.8411 54.4102 20.9291C54.4102 19.4731 54.6502 18.0651 55.1302 16.7051C55.6262 15.3291 56.2982 14.1931 57.1462 13.2971C57.9622 12.3851 58.8822 11.9291 59.9062 11.9291C61.3782 11.9291 62.1142 13.0491 62.1142 15.2891C62.1142 16.4091 61.9302 17.5531 61.5622 18.7211C61.1942 19.8891 60.7142 20.9291 60.1222 21.8411C59.5462 22.7531 58.9462 23.4091 58.3222 23.8091C57.8422 24.1131 57.3622 24.2651 56.8822 24.2651ZM57.0742 23.1851C57.5702 23.1851 58.1222 22.7531 58.7302 21.8891C59.3542 21.0251 59.8742 19.9531 60.2902 18.6731C60.7222 17.3931 60.9382 16.3051 60.9382 15.4091C60.9382 14.4811 60.8822 13.9051 60.7702 13.6811C60.6742 13.4411 60.5542 13.2731 60.4102 13.1771C60.2662 13.0811 60.0422 13.0331 59.7382 13.0331C59.4022 13.0331 59.0502 13.1611 58.6822 13.4171C57.9462 13.8811 57.3062 14.6811 56.7622 15.8171C55.9142 17.5131 55.4902 19.1611 55.4902 20.7611C55.4902 21.8491 55.8022 22.6011 56.4262 23.0171C56.6502 23.1291 56.8662 23.1851 57.0742 23.1851ZM69.1908 24.4811C68.9988 24.4811 68.8228 24.2571 68.6628 23.8091C68.5188 23.3451 68.4468 22.9211 68.4468 22.5371C68.4468 22.2171 68.4948 21.8411 68.5908 21.4091C68.2548 22.4011 67.8308 23.1291 67.3188 23.5931C66.8068 24.0411 66.1508 24.2651 65.3508 24.2651C64.5988 24.2651 64.0308 23.9611 63.6468 23.3531C63.2628 22.7291 63.0708 22.0331 63.0708 21.2651C63.0708 18.8811 63.5188 16.8571 64.4148 15.1931C64.8468 14.4411 65.2228 13.8811 65.5428 13.5131C65.8628 13.1291 66.2788 12.7691 66.7908 12.4331C67.2868 12.0971 67.9108 11.9291 68.6628 11.9291C69.3988 11.9291 69.9348 12.2891 70.2708 13.0091L70.6788 11.2091C71.2068 8.92113 71.6468 6.91313 71.9988 5.18513L72.4308 3.02513L72.6948 1.77713C72.6948 1.58513 72.7588 1.41713 72.8868 1.27313C73.0308 1.11313 73.1828 1.03313 73.3428 1.03313C73.6788 1.03313 73.8468 1.21713 73.8468 1.58513V1.68113C73.8468 2.11313 73.5748 3.56913 73.0308 6.04913C72.4708 8.62513 72.1108 10.4091 71.9508 11.4011C71.7748 12.4251 71.4628 13.8651 71.0148 15.7211L70.6788 17.0411C70.3108 18.4491 70.0388 19.5611 69.8628 20.3771C69.7028 21.1931 69.6308 21.8891 69.6468 22.4651C69.6468 22.8971 69.7188 23.3451 69.8628 23.8091C69.8468 23.9851 69.7588 24.1371 69.5988 24.2651C69.4548 24.4091 69.3188 24.4811 69.1908 24.4811ZM65.5668 23.0891C65.9348 23.0891 66.4548 22.6251 67.1268 21.6971C67.8148 20.7531 68.4148 19.6251 68.9268 18.3131C69.4388 17.0011 69.6948 15.7931 69.6948 14.6891C69.6948 14.2571 69.5668 13.8571 69.3108 13.4891C69.0708 13.1211 68.7508 12.9371 68.3508 12.9371C67.6148 12.9371 66.9268 13.4011 66.2868 14.3291C65.6468 15.2411 65.1268 16.3851 64.7268 17.7611C64.3428 19.0571 64.1508 20.1451 64.1508 21.0251C64.1508 21.6171 64.2628 22.1131 64.4868 22.5131C64.7268 22.8971 65.0868 23.0891 65.5668 23.0891ZM73.1377 22.2731C73.1377 22.0651 73.1937 21.9211 73.3057 21.8411C73.4177 21.7611 73.5617 21.7051 73.7377 21.6731C73.8817 21.6731 73.9937 21.7211 74.0737 21.8171C74.1697 21.9131 74.2817 22.0651 74.4097 22.2731C74.5377 22.4971 74.6417 22.6571 74.7217 22.7531C74.8177 22.8331 74.9777 22.8731 75.2017 22.8731C75.7137 22.8731 76.1297 22.7131 76.4497 22.3931C76.7857 22.0731 76.9537 21.6971 76.9537 21.2651C76.9537 20.8011 76.8577 20.3131 76.6657 19.8011C76.4737 19.2891 76.1777 18.6491 75.7777 17.8811C74.9777 16.4411 74.5777 15.2971 74.5777 14.4491C74.5777 13.6011 74.7857 12.9211 75.2017 12.4091C75.6337 11.8971 76.2177 11.6411 76.9537 11.6411C77.4657 11.6411 77.9537 11.7851 78.4177 12.0731C78.8817 12.3611 79.1137 12.7211 79.1137 13.1531C79.1137 13.6171 78.9217 13.8491 78.5377 13.8491C78.4257 13.8491 78.3297 13.8171 78.2497 13.7531C78.1857 13.6891 78.1217 13.6171 78.0577 13.5371C77.9937 13.4411 77.9457 13.3771 77.9137 13.3451C77.6257 13.0091 77.3057 12.8411 76.9537 12.8411C76.1697 12.8411 75.7777 13.2971 75.7777 14.2091C75.7777 14.7051 75.8737 15.2091 76.0657 15.7211C76.2577 16.2331 76.5457 16.8811 76.9297 17.6651C77.2977 18.4331 77.5777 19.0731 77.7697 19.5851C77.9617 20.0971 78.0577 20.5851 78.0577 21.0491C78.0577 21.8651 77.8097 22.5531 77.3137 23.1131C76.8177 23.6731 76.1217 24.0091 75.2257 24.1211C74.6657 24.1211 74.1777 23.9291 73.7617 23.5451C73.3457 23.1451 73.1377 22.7211 73.1377 22.2731Z" fill="black"/>
</svg>
