<svg width="120" height="136" viewBox="0 0 120 136" fill="none" xmlns="http://www.w3.org/2000/svg">
<path d="M15.3928 122.596V101.854C15.3928 87.0204 20.2568 73.0508 29.4591 61.4558C38.3853 50.2083 50.9367 42.1306 64.8014 38.7105C69.6808 37.5069 74.4724 36.2381 79.1006 34.9269C75.4354 24.9226 69.8543 14.9302 62.4655 5.16815L58.5536 0C47.7113 11.8499 35.5092 23.3583 21.2656 35.1691C11.6235 43.1645 4.79568 54.3414 2.04016 66.641C-0.79875 79.3126 0.696 92.2044 6.36293 103.923L15.3928 122.596Z" fill="#1DDE7D"/>
<path d="M117.044 38.3132C110.726 50.9702 102.856 63.5054 93.5554 75.7093C83.9503 88.3127 72.805 100.597 60.4289 112.219C49.2286 122.738 39.1425 130.742 32.0414 136H36.012C51.9765 136 65.9947 133.594 77.6775 128.848C88.388 124.497 97.2155 118.147 103.915 109.974C118.003 92.789 122.652 67.3684 117.044 38.3132Z" fill="#1DDE7D"/>
<path d="M87.2874 70.7887C96.7196 58.401 104.62 45.6802 110.849 32.8614C102.754 35.9348 94.2026 38.8048 85.3507 41.4151V41.4153C85.3244 41.423 85.2973 41.4307 85.271 41.4387L81.6051 42.5197L81.599 42.5C76.7822 43.8689 71.7923 45.1926 66.7099 46.4464C54.5487 49.4463 43.536 56.5357 35.7002 66.4091C27.6275 76.581 23.3608 88.8376 23.3608 101.854V132.464C30.9883 127.029 42.7918 117.867 55.1112 106.283C67.1428 94.9703 77.9683 83.0283 87.2874 70.7887Z" fill="#1DDE7D"/>
</svg>
