<?xml version="1.0" encoding="iso-8859-1"?>
<!-- Generator: Adobe Illustrator 19.0.0, SVG Export Plug-In . SVG Version: 6.00 Build 0)  -->
<svg version="1.1" id="Capa_1" xmlns="http://www.w3.org/2000/svg" xmlns:xlink="http://www.w3.org/1999/xlink" x="0px" y="0px"
	 viewBox="0 0 512 512" style="enable-background:new 0 0 512 512;" xml:space="preserve">
<g>
	<g>
		<path  fill="#1DDE7D" d="M358.158,163.869l-14.251-28.336c-0.457-1.366-1.103-2.637-1.906-3.789l-25.378-50.46
			c9.791-6.296,16.295-17.278,16.295-29.759v-16.16C332.918,15.864,317.054,0,297.554,0h-83.108
			c-19.499,0-35.364,15.864-35.364,35.364v16.16c0,12.935,6.984,24.263,17.376,30.429l-41.849,81.105
			c-4.548,8.64-6.951,18.364-6.951,28.127v260.433c0,33.294,27.087,60.382,60.382,60.382h95.92
			c33.294,0,60.382-27.086,60.382-60.382V190.487C364.342,181.309,362.203,172.104,358.158,163.869z M209.102,35.364
			c0-2.947,2.398-5.344,5.344-5.344h83.108c2.947,0,5.344,2.398,5.344,5.344v16.16c0,2.947-2.398,5.344-5.344,5.344h-83.108
			c-2.947,0-5.344-2.398-5.344-5.344V35.364z M305.855,126.684l-17.87,1.064c-6.19,0.371-12.376-1.407-17.426-5
			c-14.026-9.981-31.599-13.118-48.214-8.609l-10.132,2.75l15.479-29.999h58.147L305.855,126.684z M334.323,451.618
			c0,16.742-13.62,30.362-30.362,30.362h-95.92c-16.742,0-30.362-13.62-30.362-30.362V191.186c0-4.921,1.214-9.821,3.511-14.174
			l12.36-23.954l36.658-9.948c7.906-2.147,16.271-0.652,22.948,4.098c9.694,6.897,21.383,10.609,33.242,10.608
			c1.123,0,2.247-0.033,3.371-0.1l30.773-1.831l10.701,21.277c2.016,4.126,3.081,8.734,3.081,13.326V451.618z"/>
	</g>
</g>
<g>
</g>
<g>
</g>
<g>
</g>
<g>
</g>
<g>
</g>
<g>
</g>
<g>
</g>
<g>
</g>
<g>
</g>
<g>
</g>
<g>
</g>
<g>
</g>
<g>
</g>
<g>
</g>
<g>
</g>
</svg>
