<svg width="64" height="72" viewBox="0 0 64 72" fill="none" xmlns="http://www.w3.org/2000/svg">
<path d="M8.3844 64.9035V53.9227C8.3844 46.0696 10.9595 38.6739 15.8313 32.5354C20.5569 26.5808 27.2017 22.3044 34.5419 20.4938C37.1251 19.8566 39.6618 19.1849 42.112 18.4907C40.1717 13.1943 37.2169 7.90425 33.3052 2.73608L31.2342 0C25.4942 6.27348 19.0343 12.3661 11.4935 18.619C6.3889 22.8518 2.77417 28.769 1.31537 35.2805C-0.187587 41.989 0.603751 48.8141 3.60389 55.018L8.3844 64.9035Z" fill="#1DDE7D"/>
<path d="M62.1998 20.2834C58.8547 26.9842 54.6885 33.6204 49.7646 40.0814C44.6795 46.7537 38.7791 53.257 32.2271 59.4102C26.2975 64.979 20.9578 69.2161 17.1984 72.0001H19.3005C27.7522 72.0001 35.1736 70.726 41.3587 68.2135C47.029 65.9101 51.7023 62.5483 55.2491 58.2215C62.7075 49.1235 65.1686 35.6656 62.1998 20.2834Z" fill="#1DDE7D"/>
<path d="M46.4463 37.4764C51.4398 30.9182 55.6223 24.1836 58.9203 17.3972C54.6347 19.0243 50.1073 20.5437 45.421 21.9256V21.9258C45.407 21.9298 45.3927 21.9339 45.3788 21.9381L43.438 22.5104L43.4347 22.5C40.8847 23.2247 38.2429 23.9255 35.5523 24.5893C29.114 26.1774 23.2837 29.9307 19.1354 35.1578C14.8616 40.5429 12.6028 47.0316 12.6028 53.9228V70.1282C16.6409 67.2509 22.8897 62.4002 29.4118 56.2677C35.7815 50.2784 41.5126 43.9561 46.4463 37.4764Z" fill="#1DDE7D"/>
</svg>
